<?xml version="1.0" standalone="no"?>
<!DOCTYPE svg PUBLIC "-//W3C//DTD SVG 20010904//EN"
 "http://www.w3.org/TR/2001/REC-SVG-20010904/DTD/svg10.dtd">
<svg version="1.0" xmlns="http://www.w3.org/2000/svg"
 width="1024.000000pt" height="1024.000000pt" viewBox="0 0 1024.000000 1024.000000"
 preserveAspectRatio="xMidYMid meet">
<metadata>
Created by potrace 1.14, written by Peter Selinger 2001-2017
</metadata>
<g transform="translate(0.000000,1024.000000) scale(0.100000,-0.100000)"
fill="#000000" stroke="none">
<path d="M6492 7850 l-894 -5 2 -655 c1 -360 3 -1469 5 -2465 2 -995 4 -1927
4 -2070 l1 -261 258 2 c141 1 262 3 268 3 7 1 10 302 9 1006 l-2 1005 776 2
c427 2 790 2 807 0 29 -3 41 -17 135 -165 57 -89 145 -226 196 -305 51 -78 93
-144 93 -146 0 -2 33 -53 73 -114 39 -61 88 -137 108 -169 21 -32 86 -134 146
-228 60 -93 211 -330 336 -526 l227 -356 300 0 c165 0 300 3 300 6 -1 10 -34
62 -270 430 -124 193 -229 359 -235 368 -5 10 -26 43 -46 73 -47 73 -72 111
-84 132 -11 19 -170 268 -250 393 -144 223 -305 477 -305 481 0 3 -5 10 -10
17 -14 15 -130 196 -130 201 0 2 24 10 53 16 414 98 792 420 981 835 10 22 24
53 32 69 8 16 14 33 14 39 0 5 6 23 14 40 25 55 72 224 83 292 2 17 6 41 9 55
30 155 23 482 -13 620 -3 14 -7 30 -8 35 -46 200 -144 424 -269 610 -59 88
-73 106 -171 215 -215 238 -478 404 -750 475 -203 52 -258 54 -1793 45z m1618
-502 c111 -33 173 -59 240 -98 212 -124 369 -292 484 -518 105 -207 138 -339
141 -568 3 -219 -24 -374 -100 -574 -157 -411 -509 -684 -900 -699 -144 -6
-1827 -6 -1830 0 -2 3 -5 560 -6 1238 -1 837 2 1235 9 1240 5 3 430 6 944 5
l933 -1 85 -25z"/>
<path d="M855 7840 l-270 -5 2 -1195 c1 -657 2 -1882 3 -2722 l2 -1528 57 0
c31 -1 150 -1 266 -2 l210 0 2 1002 c2 552 4 1005 6 1006 2 2 362 4 801 5 683
2 799 0 812 -12 7 -8 49 -70 91 -137 118 -185 420 -657 806 -1259 40 -62 83
-131 97 -152 14 -22 44 -71 68 -108 23 -37 82 -129 130 -203 l88 -135 302 0
c166 -1 302 1 302 2 0 3 -465 734 -555 873 -23 36 -91 142 -150 235 -59 94
-131 206 -159 250 -29 44 -106 164 -172 267 -324 508 -305 476 -272 482 285
57 581 243 790 496 166 202 304 501 358 780 41 213 43 451 5 640 -3 14 -7 35
-10 48 -31 166 -145 440 -252 606 -37 58 -134 185 -178 232 -251 272 -494 424
-795 497 -85 21 -116 25 -230 33 -114 8 -1771 11 -2155 4z m2168 -484 c198
-48 295 -93 451 -211 214 -161 395 -447 460 -726 84 -364 -11 -834 -228 -1122
-65 -86 -170 -193 -231 -235 -103 -71 -157 -99 -253 -131 -159 -53 -71 -50
-1434 -54 -362 -2 -658 0 -659 3 -2 15 -6 2476 -4 2480 5 8 1866 4 1898 -4z"/>
</g>
</svg>
